HIERARCHY
ROOT Hips
{
	OFFSET 0.000000 0.000000 0.000000
	CHANNELS 6 Xposition Yposition Zposition Zrotation Yrotation Xrotation 
	JOINT LHipJoint
	{
		OFFSET 0.000000 0.000000 0.000000
		CHANNELS 3 Zrotation Yrotation Xrotation
		JOINT LeftUpLeg
		{
			OFFSET 1.363060 -1.794630 0.839290
			CHANNELS 3 Zrotation Yrotation Xrotation
			JOINT LeftLeg
			{
				OFFSET 2.448110 -6.726130 0.000000
				CHANNELS 3 Zrotation Yrotation Xrotation
				JOINT LeftFoot
				{
					OFFSET 2.562200 -7.039590 0.000000
					CHANNELS 3 Zrotation Yrotation Xrotation
					JOINT LeftToeBase
					{
						OFFSET 0.157640 -0.433110 2.322550
						CHANNELS 3 Zrotation Yrotation Xrotation
						End Site
						{
							OFFSET 0.000000 0.000000 0.000000
						}
					}
				}
			}
		}
	}
	JOINT RHipJoint
	{
		OFFSET 0.000000 0.000000 0.000000
		CHANNELS 3 Zrotation Yrotation Xrotation
		JOINT RightUpLeg
		{
			OFFSET -1.305520 -1.794630 0.839290
			CHANNELS 3 Zrotation Yrotation Xrotation
			JOINT RightLeg
			{
				OFFSET -2.542530 -6.985550 0.000000
				CHANNELS 3 Zrotation Yrotation Xrotation
				JOINT RightFoot
				{
					OFFSET -2.568260 -7.056230 0.000000
					CHANNELS 3 Zrotation Yrotation Xrotation
					JOINT RightToeBase
					{
						OFFSET -0.164730 -0.452590 2.363150
						CHANNELS 3 Zrotation Yrotation Xrotation
						End Site
						{
							OFFSET 0.000000 0.000000 0.000000
						}
					}
				}
			}
		}
	}
	JOINT LowerBack
	{
		OFFSET 0.000000 0.000000 0.000000
		CHANNELS 3 Zrotation Yrotation Xrotation
		JOINT Spine
		{
			OFFSET 0.028270 2.035590 -0.193380
			CHANNELS 3 Zrotation Yrotation Xrotation
			JOINT Spine1
			{
				OFFSET 0.056720 2.048850 -0.042750
				CHANNELS 3 Zrotation Yrotation Xrotation
				JOINT Neck
				{
					OFFSET 0.000000 0.000000 0.000000
					CHANNELS 3 Zrotation Yrotation Xrotation
					JOINT Neck1
					{
						OFFSET -0.054170 1.746240 0.172020
						CHANNELS 3 Zrotation Yrotation Xrotation
						JOINT Head
						{
							OFFSET 0.104070 1.761360 -0.123970
							CHANNELS 3 Zrotation Yrotation Xrotation
							End Site
							{
								OFFSET 0.000000 0.000000 0.000000
							}
						}
					}
				}
				JOINT LeftShoulder
				{
					OFFSET 0.000000 0.000000 0.000000
					CHANNELS 3 Zrotation Yrotation Xrotation
					JOINT LeftArm
					{
						OFFSET 3.362410 1.200890 -0.311210
						CHANNELS 3 Zrotation Yrotation Xrotation
						JOINT LeftForeArm
						{
							OFFSET 4.983000 -0.000000 -0.000000
							CHANNELS 3 Zrotation Yrotation Xrotation
							JOINT LeftHand
							{
								OFFSET 3.483560 -0.000000 -0.000000
								CHANNELS 3 Zrotation Yrotation Xrotation
								JOINT LeftFingerBase
								{
									OFFSET 0.000000 0.000000 0.000000
									CHANNELS 3 Zrotation Yrotation Xrotation
									JOINT LeftHandIndex1
									{
										OFFSET 0.715260 -0.000000 -0.000000
										CHANNELS 3 Zrotation Yrotation Xrotation
										End Site
										{
											OFFSET 0.000000 0.000000 0.000000
										}
									}
								}
								JOINT LThumb
								{
									OFFSET 0.000000 0.000000 0.000000
									CHANNELS 3 Zrotation Yrotation Xrotation
									End Site
									{
										OFFSET 0.000000 0.000000 0.000000
									}
								}
							}
						}
					}
				}
				JOINT RightShoulder
				{
					OFFSET 0.000000 0.000000 0.000000
					CHANNELS 3 Zrotation Yrotation Xrotation
					JOINT RightArm
					{
						OFFSET -3.136600 1.374050 -0.404650
						CHANNELS 3 Zrotation Yrotation Xrotation
						JOINT RightForeArm
						{
							OFFSET -5.241900 -0.000000 -0.000000
							CHANNELS 3 Zrotation Yrotation Xrotation
							JOINT RightHand
							{
								OFFSET -3.444170 -0.000000 -0.000000
								CHANNELS 3 Zrotation Yrotation Xrotation
								JOINT RightFingerBase
								{
									OFFSET 0.000000 0.000000 0.000000
									CHANNELS 3 Zrotation Yrotation Xrotation
									JOINT RightHandIndex1
									{
										OFFSET -0.622530 -0.000000 -0.000000
										CHANNELS 3 Zrotation Yrotation Xrotation
										End Site
										{
											OFFSET 0.000000 0.000000 0.000000
										}
									}
								}
								JOINT RThumb
								{
									OFFSET 0.000000 0.000000 0.000000
									CHANNELS 3 Zrotation Yrotation Xrotation
									End Site
									{
										OFFSET 0.000000 0.000000 0.000000
									}
								}
							}
						}
					}
				}
			}
		}
	}
}
MOTION
Frames: 10
Frame Time: 0.033333
2.643565 16.656842 -14.471410 1.740898 4.469996 32.889673 -11.155038 0.236703 0.503796 -4.405017 -12.134924 -47.576094 -0.704420 4.869002 16.127665 4.070877 -2.645717 -9.291360 -1.611643 0.092415 -33.757357 9.882701 -2.557786 2.312623 5.620014 11.793140 -56.871989 5.813375 1.810387 39.425796 -1.672960 -4.448796 -19.450347 1.834057 -0.315929 -35.330874 3.332859 -7.558821 -13.380236 -0.497153 0.034144 -3.763913 -4.783728 -0.493316 4.677840 9.896823 -12.192320 -16.784188 -3.183062 -0.273859 -2.225880 -0.039577 0.061072 0.102768 0.727946 15.221994 3.140964 -69.969345 -14.595290 0.053584 11.026104 -67.984730 -7.710674 12.359664 -4.907249 -0.598055 -0.324071 0.373638 -0.036487 0.013039 -0.043552 0.001520 -0.039282 0.099398 -0.026990 6.847212 -8.951945 -3.610510 70.395004 -5.623864 -9.922177 -13.245274 77.367967 -10.861832 -12.269441 9.635862 -1.208063 0.084225 -0.505181 0.055629 0.046039 -0.025319 -0.093401 0.029571 0.029259 0.010828 
2.637952 16.594382 -14.340750 3.319714 5.510009 33.628777 -12.174617 -1.118153 1.173897 -4.816851 -10.228205 -50.867114 -2.607670 3.715158 20.654856 4.567300 -3.012253 -10.728051 -2.259134 0.130443 -32.126150 8.633646 -1.060748 3.127161 3.238871 11.438630 -60.427671 4.181994 -2.504973 43.056294 -2.055021 -4.935083 -18.963657 2.087248 -0.327809 -34.984312 3.240152 -10.477631 -14.092304 0.054760 -0.258690 -4.046488 -5.327019 -0.794548 5.559095 10.220078 -12.263991 -16.474997 -3.161221 -0.309901 -2.440293 -0.028000 0.078266 0.097994 1.223864 16.236438 3.402063 -70.977450 -10.574789 -0.185927 4.429484 -70.270309 -2.483718 12.138690 -5.047027 -0.605015 -0.370992 0.341690 -0.044349 0.012671 -0.048860 0.008653 -0.037701 0.101810 -0.023661 9.203534 -8.767650 -3.608112 69.550472 -4.150488 -5.610766 -16.233147 79.082767 -13.015883 -12.239746 9.199409 -1.128159 0.170523 -0.518086 0.054643 0.050685 -0.024961 -0.095989 0.039464 0.032185 0.013585 
2.629816 16.543084 -14.182312 3.395142 4.496843 32.422848 -11.602984 -2.311205 3.483251 -6.060333 -9.365650 -54.563909 -0.426374 4.196585 26.336556 4.590026 -2.367511 -12.406260 -2.702916 0.177557 -30.821180 8.564132 0.268977 4.331182 1.827986 11.792943 -60.781853 3.239162 -4.032185 45.149201 -1.927960 -5.180479 -19.718951 1.906188 -0.328034 -34.545672 3.035805 -6.641761 -14.908183 0.934866 -0.550380 -4.197009 -5.393362 -1.004145 6.105067 9.871381 -12.099090 -16.823377 -3.397320 -0.340835 -2.464710 -0.028070 0.083334 0.093528 0.746788 13.944629 3.894262 -69.033255 -8.738391 1.039287 5.177477 -71.751433 -3.979532 11.798997 -4.467904 -0.540524 -0.319340 0.306408 -0.049780 0.005937 -0.051667 0.015272 -0.047546 0.104380 -0.013998 13.410770 -13.967237 -4.981225 68.070495 -1.661965 -2.076855 -10.742845 76.371183 -8.049368 -11.665707 8.287655 -0.973201 0.267880 -0.592661 0.049243 0.051706 -0.028022 -0.098721 0.044816 0.029658 0.007487 
2.619765 16.523226 -13.990170 3.431182 2.137796 33.638690 -11.871721 -3.206174 3.943709 -5.498873 -8.505743 -59.572126 0.938407 6.369532 32.663138 4.096424 -1.371827 -12.062537 -2.571047 0.174227 -30.919714 8.881631 1.973089 4.277321 -0.906192 14.178787 -62.603036 0.679983 -5.281722 48.228853 -1.491356 -6.386768 -18.697242 1.894008 -0.321129 -35.774963 2.770158 -7.088691 -16.158019 0.918379 -0.689788 -4.291744 -4.686949 -0.806826 6.054650 9.941736 -11.723866 -16.040086 -3.171238 -0.339783 -2.305918 -0.030490 0.081689 0.088893 -0.322668 13.163510 3.722046 -69.095569 -6.884146 1.679024 5.213052 -71.212981 -4.445322 10.995001 -4.087912 -0.479700 -0.267761 0.379911 -0.056215 -0.009499 -0.045843 0.012744 -0.054576 0.101742 -0.008993 14.023430 -12.683577 -8.470188 66.198521 -0.302182 -0.350105 -8.690391 75.105225 -6.743817 -10.959445 8.049836 -0.878668 0.292827 -0.545702 0.040990 0.062762 -0.032495 -0.099623 0.059169 0.014779 0.001081 
2.601735 16.559302 -13.760118 2.957919 -0.658712 34.372526 -11.718391 -3.148389 3.637575 -4.561359 -9.446347 -61.825784 3.424545 8.137297 37.347104 3.232520 1.431247 -10.913010 -2.291970 0.216296 -31.455886 10.378643 3.554712 3.883972 -2.913547 14.947617 -62.693839 0.950985 -3.926987 50.552359 -0.788005 -8.215153 -18.388811 1.946659 -0.383314 -35.854177 1.345968 -1.946368 -16.439254 1.031887 -1.247280 -4.328605 -3.940644 -1.316662 5.645728 9.287417 -11.375499 -14.966338 -3.259516 -0.318662 -1.970459 -0.039689 0.078967 0.076725 0.767866 10.067901 3.056415 -70.201398 -7.323505 3.571948 10.083953 -70.839930 -10.135812 11.020084 -4.413715 -0.506261 -0.198794 0.324137 -0.055899 -0.026974 -0.037397 0.009013 -0.055066 0.098080 -0.011881 15.218725 -15.947511 -17.130503 63.947937 0.679711 -0.740013 -8.072687 76.650820 -6.696892 -11.322708 8.833951 -0.978607 0.253520 -0.503541 0.038371 0.069453 -0.028174 -0.099667 0.071603 0.002753 -0.003125 
2.570753 16.678938 -13.494364 2.212665 -4.069341 35.996022 -11.041701 -3.656626 2.382857 -6.599137 -8.914154 -62.773300 6.624490 6.779401 39.881422 2.250664 4.854650 -9.070113 -1.936803 0.253622 -32.028723 11.295614 4.475673 2.317912 -3.883566 15.431542 -61.343536 2.744862 -2.633908 50.515492 -0.366376 -8.410008 -17.199192 1.989093 -0.390478 -36.691248 -0.011878 0.982603 -17.919966 0.071373 -1.874644 -2.988390 -3.962629 -2.125468 4.434680 9.238556 -11.031358 -12.698521 -2.962428 -0.289317 -1.401586 -0.050434 0.074607 0.064922 1.060235 9.460031 2.229813 -70.794520 -6.991446 5.080805 10.905606 -72.520819 -10.864973 11.038844 -4.929053 -0.550188 -0.166413 0.312826 -0.051724 -0.037977 -0.034429 -0.000031 -0.052370 0.089604 -0.016609 15.906291 -14.973706 -23.347154 61.946462 2.189943 -2.994161 -7.845246 80.516822 -6.611512 -11.575574 9.687766 -1.066362 0.220011 -0.453234 0.029119 0.075941 -0.017873 -0.092246 0.084466 -0.009384 -0.004475 
2.530908 16.908426 -13.193043 3.237387 -6.669385 33.155037 -11.601345 -3.967789 2.893331 -6.633772 -8.839060 -59.574551 8.302928 9.615584 40.263482 1.152621 7.028448 -5.218999 -1.702097 0.309150 -31.618202 12.567189 4.454239 2.683104 -4.547381 13.994204 -55.014047 3.614792 -0.154964 46.833050 -0.674322 -7.390458 -17.173873 1.740807 -0.343013 -38.287602 -2.981571 2.883667 -17.470906 -0.107303 -2.593654 -1.863207 -4.596984 -2.816260 4.110109 8.532665 -10.383808 -11.441528 -2.618302 -0.262037 -1.097206 -0.054739 0.068217 0.047452 1.416623 10.072171 1.739060 -72.255370 -7.292947 9.289114 6.228099 -71.738157 -5.947811 11.916487 -5.301533 -0.644805 -0.149576 0.399791 -0.040697 -0.041992 -0.043012 0.001733 -0.057552 0.080666 -0.017568 14.799212 -12.710161 -26.151847 61.558466 4.811425 -4.733441 -7.047965 84.738536 -5.938984 -12.206053 10.920244 -1.249169 0.186406 -0.432786 0.013921 0.081631 -0.012378 -0.079136 0.069324 -0.008665 -0.005482 
2.486775 17.249764 -12.852985 4.613608 -7.620803 30.893784 -12.355556 -4.031596 3.112344 -7.854557 -8.348988 -55.050423 7.114216 8.765740 38.108880 0.375747 10.555871 -0.904266 -1.474422 0.300071 -32.339136 13.609479 3.796743 3.190252 -5.247334 11.809053 -46.879773 3.867968 2.930085 37.538356 -1.054958 -6.185839 -16.183954 1.223062 -0.242079 -40.145956 -6.879007 6.533013 -17.672546 0.534542 -2.397517 -1.497711 -3.856092 -3.350330 4.227885 7.135599 -9.762581 -10.612478 -2.643339 -0.289124 -0.721518 -0.058801 0.063005 0.029155 0.153644 8.948976 0.620378 -71.786656 -7.858176 11.999613 5.195398 -70.915586 -5.359628 12.374122 -5.600782 -0.684256 -0.226998 0.393959 -0.023861 -0.043571 -0.050771 0.009040 -0.051158 0.068216 -0.018282 10.716060 -15.129478 -30.704476 61.047743 6.978112 -6.985894 93.517195 89.426764 94.889634 -12.586611 11.753465 -1.347133 0.171948 -0.420450 -0.003220 0.080210 -0.000137 -0.062592 0.051762 -0.003532 -0.000232 
2.434735 17.717964 -12.454044 5.909816 -8.212272 25.501269 -14.396590 -4.809922 3.885446 -5.980105 -6.418167 -48.193023 6.787279 13.324310 35.764730 0.005338 11.363831 7.339672 -1.355954 0.236574 -34.407037 14.040176 3.635299 4.649693 -4.938377 9.293348 -36.316355 2.379728 4.187777 27.637300 -0.530459 -5.841786 -9.620102 0.772536 -0.186653 -42.159917 -10.095784 8.771502 -14.377579 0.658285 -3.314507 -1.441365 -2.954918 -2.735394 3.857435 5.817210 -8.978112 -9.603040 -2.579991 -0.296896 -0.399663 -0.055573 0.054822 0.018050 -0.563135 10.291612 -0.297258 -71.903665 -8.715671 14.291959 4.283729 -69.404845 -3.784562 13.623425 -6.310482 -0.841556 -0.244289 0.377066 -0.002612 -0.043970 -0.054970 0.012494 -0.054534 0.065558 -0.023042 6.373958 -15.159462 -31.055989 59.805136 9.470671 -10.712467 140.017168 88.491938 140.692608 -13.455217 12.467905 -1.522183 0.177525 -0.480526 -0.013233 0.068362 0.023902 -0.057822 0.037159 0.001347 0.003917 
2.373744 18.365094 -11.979087 6.796457 -7.810827 20.656595 -17.521101 -5.325957 4.661336 -4.108166 -2.898009 -41.738349 4.840418 13.197633 33.031863 -0.611217 15.075562 17.971140 -1.181639 0.153986 -36.599268 15.638377 3.654735 5.983795 -5.677434 5.031775 -27.869613 1.884484 4.763666 19.753177 0.694632 -7.589040 3.709154 0.450512 -0.196766 -44.117807 -11.752567 11.489588 -12.969902 0.344328 -3.113896 -1.472951 -2.910774 -3.560708 4.699248 4.827021 -8.112666 -9.227459 -2.590698 -0.304689 -0.210200 -0.053671 0.046886 0.013533 -1.158025 10.747066 -2.411431 -71.190235 -9.481594 17.220875 6.103936 -66.699868 -6.062395 14.886456 -7.088769 -1.018110 -0.263106 0.445574 0.018457 -0.051617 -0.052822 0.026022 -0.055791 0.070361 -0.029854 1.735163 -14.490729 -31.353078 59.497873 12.712675 -14.374216 126.756774 88.394028 126.878473 -14.180146 13.021325 -1.655284 0.171836 -0.507604 -0.016563 0.061244 0.042651 -0.054211 0.028734 0.013530 0.012177 
